<?xml version="1.0" encoding="utf-8"?>
<!-- Generator: Adobe Illustrator 26.0.1, SVG Export Plug-In . SVG Version: 6.00 Build 0)  -->
<svg version="1.1" id="Layer_1" xmlns="http://www.w3.org/2000/svg" xmlns:xlink="http://www.w3.org/1999/xlink" x="0px" y="0px"
	 viewBox="0 0 9.1 12" style="enable-background:new 0 0 9.1 12;" xml:space="preserve">
<polygon points="6,0 6,3 9,3 "/>
<path d="M5.2,3V0H1.5C0.7,0,0,0.7,0,1.5v9C0,11.3,0.7,12,1.5,12h1.1V8.6c0-0.8,0.7-1.5,1.5-1.5H9V3.7H6C5.6,3.7,5.2,3.4,5.2,3z"/>
<path d="M7.8,8.2H7.1c-0.2,0-0.4,0.2-0.4,0.4v3C6.7,11.8,6.8,12,7,12c0,0,0,0,0,0c0.2,0,0.4-0.2,0.4-0.4l0,0v-0.7h0.4
	c0.7-0.1,1.3-0.7,1.2-1.4C8.9,8.8,8.4,8.3,7.8,8.2z M7.8,10.1H7.4V9h0.4c0.3,0,0.6,0.2,0.6,0.6C8.4,9.8,8.1,10.1,7.8,10.1
	C7.8,10.1,7.8,10.1,7.8,10.1z"/>
<path d="M5.6,9.7C5.8,9.7,6,9.6,6,9.4V9.2C6,8.6,5.6,8.2,5,8.2H4.7c-0.5,0-0.9,0.4-0.9,0.9V11c0,0.5,0.4,0.9,0.9,0.9H5
	C5.6,12,6,11.6,6,11v-0.6c0,0,0,0,0,0c0,0,0,0,0,0c0-0.2-0.2-0.4-0.4-0.4c0,0,0,0,0,0c0,0,0,0,0,0c0,0-0.7,0-0.7,0
	c-0.2,0-0.2,0.1-0.2,0.2c0,0.1,0,0.3,0.1,0.3c0,0,0.1,0,0.1,0c0.1,0,0.2,0.1,0.2,0.2c0,0,0,0.3,0,0.3c0,0,0,0,0,0l0,0
	c0,0.1-0.1,0.2-0.2,0.2H4.7c-0.1,0-0.2-0.1-0.2-0.2V9.2C4.5,9.1,4.6,9,4.7,9H5c0.1,0,0.2,0.1,0.2,0.2v0.2C5.2,9.6,5.4,9.7,5.6,9.7z"
	/>
<path d="M5.3,11"/>
<path d="M4.9,10.7"/>
</svg>
